<svg width="26" height="29" viewBox="0 0 26 29" fill="none" xmlns="http://www.w3.org/2000/svg">
<path d="M12.9585 28.6236L24.2667 22.1035L19.9293 19.603L15.4966 22.1575C15.4589 22.1787 15.4163 22.1896 15.3731 22.1893C15.3298 22.189 15.2874 22.1774 15.2499 22.1558C15.2125 22.1342 15.1813 22.1032 15.1596 22.0658C15.1378 22.0285 15.126 21.9862 15.1257 21.943V15.8701C15.1256 15.7831 15.1485 15.6976 15.1921 15.6222C15.2357 15.5469 15.2984 15.4844 15.374 15.441L20.64 12.4043C20.6778 12.383 20.7205 12.3719 20.7639 12.3721C20.8072 12.3724 20.8499 12.3839 20.8875 12.4055C20.9251 12.4271 20.9564 12.4582 20.9783 12.4956C21.0002 12.533 21.012 12.5754 21.0125 12.6188V17.7278L25.3491 20.2283V7.18872L12.9585 14.3334V28.6236Z" fill="#A6A6A6"/>
<path d="M14.0431 0.668457V5.67021L18.4735 8.22473C18.5107 8.24673 18.5417 8.27804 18.5631 8.31558C18.5845 8.35313 18.5958 8.39564 18.5958 8.4389C18.5958 8.48209 18.5845 8.5246 18.5631 8.56215C18.5417 8.5997 18.5107 8.63101 18.4735 8.65302L13.2075 11.6898C13.1319 11.7333 13.0463 11.7563 12.9592 11.7563C12.872 11.7563 12.7863 11.7333 12.7108 11.6898L7.44404 8.65607C7.40679 8.63398 7.37592 8.6026 7.35449 8.56497C7.33306 8.52734 7.32179 8.48483 7.32179 8.44157C7.32179 8.39823 7.33306 8.35572 7.35449 8.31809C7.37592 8.2805 7.40679 8.24911 7.44404 8.22701L11.8744 5.67326V0.668457L0.566162 7.18862L12.9583 14.3333L25.3506 7.18862L14.0431 0.668457Z" fill="white"/>
<path d="M10.4202 22.1582L5.98757 19.603L1.6509 22.1035L12.9583 28.6236V14.3334L0.566162 7.18872V20.2283L4.90359 17.7278V12.618C4.90429 12.5748 4.91619 12.5326 4.93812 12.4955C4.96005 12.4582 4.99128 12.4274 5.02873 12.4058C5.06619 12.3842 5.1086 12.3728 5.15182 12.3725C5.19504 12.3723 5.2376 12.3832 5.27533 12.4043L10.5451 15.441C10.6205 15.4845 10.6831 15.5471 10.7266 15.6224C10.7701 15.6977 10.7928 15.7832 10.7927 15.8701V21.943C10.7925 21.9865 10.781 22.0291 10.7592 22.0668C10.7374 22.1044 10.7061 22.1357 10.6684 22.1575C10.6307 22.1793 10.5879 22.1908 10.5444 22.1909C10.5009 22.1911 10.4581 22.1798 10.4202 22.1582Z" fill="#CCCCCC"/>
</svg>
